:SAMPLES-PER-SECOND 30
:FRAME-RANGE 1-1086
:FULLY-SPECIFIED
:DEGREES
442
root  -52.9901 38.9122 59.6113 9.00751 -27.9409 -0.894165
RightUpLeg  -0.441519 -16.8083 -12.1082
RightLeg  8.28997 -20.3438 0.527191
RightFoot  -3.3907 -1.07376 15.0365
RightToes  1.21801e-010 1.2921e-014 -6.02303e-014
Spine  -0.191965 -4.22839 9.90943
Spine1  5.10591 -1.89142 -12.0243
HEad  9.43571 35.2456 -9.69888
LeftShoulder1  0.828901 -0.5164 -15.09
LeftArm  -0.272023 9.82087 -50.4456
LeftForeArm  11.4466 -65.9101 -25.3013
LeftHand  0.0818678 2.31066 -3.65013
RightShoulder  0.796512 -0.377419 20.6901
RightArm  6.23797 -12.3538 29.6741
RightForeArm  47.9928 77.5813 57.8994
RightHand  0.080187 -8.2155 -4.85377
LeftUpLeg  -23.3835 3.34615 1.74934
LeftLeg  14.8637 33.2873 10.5846
LeftFoot  2.9227 0.478672 -3.96721
LeftToes  3.79492e-011 -8.60219e-011 1.56273e-011
443
root  -52.6241 38.7875 60.4969 8.27203 -25.9737 -0.249146
RightUpLeg  -0.672494 -24.6911 -14.2914
RightLeg  13.004 -12.6044 -2.23454
RightFoot  -3.03634 -1.43395 19.2931
RightToes  1.21801e-010 1.2921e-014 -6.02303e-014
Spine  -0.378204 -3.7073 9.27729
Spine1  5.23521 -1.24914 -12.7359
HEad  10.3917 35.5088 -9.26152
LeftShoulder1  0.809137 -0.263018 -16.1663
LeftArm  0.466253 9.67344 -49.9512
LeftForeArm  11.2107 -65.4502 -24.6974
LeftHand  0.0798002 2.22166 -3.57229
RightShoulder  0.819718 -0.269207 20.4816
RightArm  6.31281 -13.4716 29.5923
RightForeArm  45.8349 77.2389 55.3111
RightHand  0.0578512 -7.77164 -4.58889
LeftUpLeg  -23.4232 2.37905 0.0556
LeftLeg  17.3848 31.6448 11.2161
LeftFoot  1.6277 0.194121 -1.79499
LeftToes  3.79492e-011 -8.60219e-011 1.56273e-011
444
root  -52.241 38.6637 61.3989 7.70746 -23.9912 0.172913
RightUpLeg  -1.48769 -26.8789 -16.7024
RightLeg  18.8049 -9.86392 -3.91983
RightFoot  -1.82128 -1.9578 23.0674
RightToes  1.21801e-010 1.2921e-014 -6.02303e-014
Spine  -0.878311 -3.0896 8.69425
Spine1  5.66699 -0.608136 -13.1285
HEad  11.7416 36.2156 -9.28199
LeftShoulder1  0.761828 0.0467223 -16.9306
LeftArm  1.38337 9.65536 -50.026
LeftForeArm  10.8772 -64.9258 -24.0498
LeftHand  0.0793939 2.29 -3.73208
RightShoulder  0.843342 -0.136747 20.0823
RightArm  6.80876 -14.1195 28.9878
RightForeArm  43.4042 76.8608 52.9595
RightHand  0.0488655 -7.6092 -4.42683
LeftUpLeg  -23.2416 1.98519 -1.55012
LeftLeg  19.5094 29.7672 11.4719
LeftFoot  -0.234112 0.0554948 -0.556355
LeftToes  3.79492e-011 -8.60219e-011 1.56273e-011
445
root  -51.8263 38.6201 62.3453 7.05707 -20.8117 0.48999
RightUpLeg  -1.98986 -27.486 -19.2044
RightLeg  24.9996 -10.1918 -5.35605
RightFoot  0.959029 -2.3819 21.9167
RightToes  1.21801e-010 1.2921e-014 -6.02303e-014
Spine  -1.35921 -3.03923 8.19386
Spine1  5.97681 -0.73183 -12.6864
HEad  12.8323 37.1715 -9.43408
LeftShoulder1  0.712402 0.308789 -17.3585
LeftArm  2.41724 10.0453 -50.0985
LeftForeArm  10.8256 -64.8116 -23.9103
LeftHand  0.0748313 2.398 -3.49984
RightShoulder  0.869282 -0.0164947 19.8956
RightArm  7.57662 -14.3411 28.0456
RightForeArm  40.9411 76.4509 50.7245
RightHand  0.0509187 -7.57782 -4.58056
LeftUpLeg  -22.1182 0.85061 -3.25429
LeftLeg  20.1451 27.8736 11.1388
LeftFoot  -2.1061 -0.0406385 0.660653
LeftToes  3.79492e-011 -8.60219e-011 1.56273e-011
446
root  -51.4542 38.6581 63.3063 6.45007 -18.2366 0.461243
RightUpLeg  -3.52194 -25.7088 -20.042
RightLeg  31.4597 -12.0223 -8.05376
RightFoot  4.26369 -1.77761 13.1343
RightToes  1.21801e-010 1.2921e-014 -6.02303e-014
Spine  -1.65626 -2.68112 8.11759
Spine1  6.03774 -0.528535 -11.9772
HEad  13.1219 38.2014 -9.9624
LeftShoulder1  0.685268 0.443405 -17.5424
LeftArm  3.40244 10.5108 -50.1326
LeftForeArm  10.7013 -64.6024 -23.6625
LeftHand  0.0717611 2.32964 -3.28478
RightShoulder  0.873591 -0.00426941 19.9323
RightArm  8.28729 -14.5889 27.2713
RightForeArm  38.6189 76.0442 48.7659
RightHand  0.0439796 -7.43552 -4.47565
LeftUpLeg  -20.197 0.0105296 -4.43737
LeftLeg  19.8387 26.3314 10.434
LeftFoot  -3.64577 -0.0877396 1.63159
LeftToes  3.79492e-011 -8.60219e-011 1.56273e-011
447
root  -51.1397 38.5717 64.1777 6.01477 -15.5451 0.804932
RightUpLeg  -5.05513 -22.5764 -20.2626
RightLeg  36.9593 -11.5429 -9.42517
RightFoot  0.926469 -0.829386 7.76465
RightToes  1.21801e-010 1.2921e-014 -6.02303e-014
Spine  -2.27206 -2.37587 7.39349
Spine1  6.34657 -0.356735 -11.6827
HEad  12.9208 38.8453 -10.7248
LeftShoulder1  0.662206 0.55186 -17.6564
LeftArm  4.08933 10.8673 -50.2874
LeftForeArm  10.2094 -64.1591 -23.1811
LeftHand  0.0684945 2.35677 -3.13354
RightShoulder  0.887557 0.0254251 20.1342
RightArm  8.86235 -14.8429 26.7039
RightForeArm  36.5511 75.6244 46.8762
RightHand  0.0334859 -7.21189 -4.30368
LeftUpLeg  -19.194 -1.76832 -5.85584
LeftLeg  20.9532 25.6505 10.9019
LeftFoot  -5.19709 -0.0671217 1.8342
LeftToes  3.79492e-011 -8.60219e-011 1.56273e-011
